<?xml version="1.0" encoding="utf-8"?>
<!-- Generator: Adobe Illustrator 26.0.3, SVG Export Plug-In . SVG Version: 6.00 Build 0)  -->
<svg version="1.1" id="Layer_1" xmlns="http://www.w3.org/2000/svg" xmlns:xlink="http://www.w3.org/1999/xlink" x="0px" y="0px"
	 viewBox="0 0 360 90.2" style="enable-background:new 0 0 360 90.2;" xml:space="preserve">
<style type="text/css">
	.st0{fill:#FDBF38;}
	.st1{fill:#DA1A32;}
</style>
<g>
	<g>
		<path d="M99.6,14.3h11.2v39.4c0,8.2,5.4,12.9,13.6,12.9S138,62,138,53.6V14.3h11.2v39.4c0,13.8-10,23.1-24.8,23.1
			c-14.9,0-24.8-9.3-24.8-23.1V14.3z"/>
		<path d="M167,14.3H179l12,30.4c1.4,3.6,3.1,9,3.1,9h0.2c0,0,1.6-5.4,3-9l12-30.4h11.9l4.9,61.5h-11.1l-2.6-34.4
			c-0.3-4.1-0.1-9.5-0.1-9.5h-0.2c0,0-1.8,6-3.3,9.5l-10,23.8h-9.8l-9.9-23.8c-1.5-3.5-3.4-9.6-3.4-9.6h-0.2c0,0,0.2,5.5-0.1,9.6
			l-2.6,34.4H162L167,14.3z"/>
		<path d="M268.3,13.3c15.1,0,22.9,7.8,22.9,7.8l-5.5,8.3c0,0-6.6-5.9-16.4-5.9c-13.8,0-21.1,9.5-21.1,21.1c0,13.3,9.1,22,20.6,22
			c9.3,0,15.4-6.4,15.4-6.4V53h-9.4v-9.6h19.5v32.4h-9.5v-2.9c0-1.3,0.1-2.6,0.1-2.6h-0.2c0,0-6.4,6.6-17.8,6.6
			c-16.2,0-30.1-12.6-30.1-31.9C236.6,27.2,250.1,13.3,268.3,13.3z"/>
		<path d="M335.7,13.3c15,0,22.7,8.4,22.7,8.4L353,30c0,0-7-6.5-16.8-6.5c-13,0-20.6,9.7-20.6,21.1c0,11.7,7.9,22,20.7,22
			c10.6,0,17.8-7.8,17.8-7.8l5.9,8.1c0,0-8.5,10-24.2,10c-18.8,0-31.8-13.9-31.8-32C304.1,27,317.6,13.3,335.7,13.3z"/>
	</g>
	<g>
		<ellipse transform="matrix(0.9366 -0.3503 0.3503 0.9366 -0.5102 8.3258)" class="st0" cx="22.8" cy="5.6" rx="11.1" ry="3.1"/>
		<path class="st0" d="M52.8,2.4C49.3,1.2,45.7,0.4,42,0c0,0,0,0,0,0c0,0,0,0,0,0.1s0,0,0,0c0.9,0.3,1.6,0.8,1.8,1.4
			c1.2,3.1-6.8,8.9-17.7,13c-2.2,0.8-4.4,1.5-6.5,2.1L17,26.3c3.6-0.9,7.7-2.1,12.1-3.8c15.2-5.7,24-12.3,25.6-17.2
			c0.1-0.4,0.2-0.9,0-1.4S54.1,2.9,52.8,2.4z"/>
		<path class="st1" d="M78.3,25.1C78.3,25.1,78.2,25.1,78.3,25.1c-0.1,0-0.1,0-0.1,0c0.5,6.6-16,18-38.2,26.3
			c-2.1,0.8-4.2,1.5-6.3,2.2l-3.4,12.2c4.2-1.2,8.7-2.6,13.4-4.4c18-6.7,30.4-14.7,36.8-22.2c0.4-0.5,1.8-2.2,1.3-4.5
			c-0.4-1.9-1-3.8-1.7-5.6C79.5,27.8,78.9,26.5,78.3,25.1z"/>
		<path class="st1" d="M71,14.5C68.8,12,66.3,9.9,63.6,8c0,0-0.1,0-0.1,0c0,0,0,0.1,0,0.1c0.2,0.2,0.3,0.4,0.4,0.7
			c2,5.3-12.1,15.4-31.4,22.6c-11,4.1-21.3,6.4-28.6,6.6L0,48.9c8.2,0.6,20.7-1.7,36.2-7.5c16.2-6.1,27.3-12.8,32.9-18.9
			c1-1.1,1.8-2.4,2.4-3.8C72,17.4,72,15.6,71,14.5z"/>
		<path d="M82.9,47.4C82.8,47.4,82.8,47.5,82.9,47.4c-3.2,6.6-17.4,16-35.9,22.9c-8.9,3.3-17.4,5.6-24.5,6.7l-2.9,8.5
			c8.3-0.5,18.6-2.8,30.5-7.2c8.4-3.2,23.4-10.3,29.1-18C80.9,57.8,82.8,52.1,82.9,47.4C82.9,47.5,82.9,47.4,82.9,47.4z"/>
		<g>
			<path d="M75.2,70.4C75.2,70.4,75.1,70.4,75.2,70.4c-6.6,5.2-14.7,9.7-23.9,13.2c-2.2,0.8-4.3,1.5-6.5,2.2l-1.2,4.4
				c3.3-0.4,6.6-1.3,9.8-2.5C62.7,84.2,70.1,78.1,75.2,70.4C75.2,70.5,75.3,70.4,75.2,70.4z"/>
		</g>
	</g>
</g>
</svg>
